<svg xmlns="http://www.w3.org/2000/svg" width="343" height="74" viewBox="0 0 343 74" class="editor-view__logo-preview" data-v-8d8ae3dd="" data-v-b9d2a614=""><svg id="mark" viewBox="0 0 100 100" width="74" height="74" x="0" y="0" data-v-8d8ae3dd="" style="fill: rgb(240, 240, 240);"><rect x="0" y="0" width="100%" height="100%" fill="none" data-v-8d8ae3dd=""></rect><g data-v-8d8ae3dd=""><g xmlns="http://www.w3.org/2000/svg"><g><path d="M61.796,31.233c0.24-1.163-3.086-4.209-6.512-4.913c-3.425-0.705-6.395-0.332-6.634,0.83    c-0.239,1.162,2.344,2.676,5.769,3.38C57.846,31.235,61.559,32.396,61.796,31.233z M69.664,46.394    c-0.936,0.926,0.518,3.908,3.24,6.66c2.725,2.754,4.967,5.631,5.9,4.707c0.937-0.924,0.209-5.303-2.519-8.055    C73.564,46.952,70.598,45.468,69.664,46.394z M58.688,38.791c-2.976-2.481-6.067-3.674-6.912-2.665    c-0.84,1.01,0.889,3.84,3.861,6.32c2.975,2.48,7.342,2.554,8.187,1.545C64.664,42.98,61.661,41.271,58.688,38.791z M38.457,30.02    c-3.865-0.255-7.069,0.602-7.155,1.914c-0.086,1.312,2.976,2.583,6.841,2.838c3.865,0.256,7.068-0.602,7.155-1.913    C45.385,31.546,42.322,30.275,38.457,30.02z M95.51,83.817l-1.517,0.062l1.515-0.094c-0.146-2.334-0.203-5.152-1.226-9.117    c-1.021-3.969-2.988-9.088-6.901-16.281c-0.009-0.016-0.02-0.031-0.027-0.049c-5.725-12.242-15.646-29.457-30.223-39.748    c0.11-0.737,0.186-1.562,0.186-2.443c-0.002-1.361-0.166-2.835-0.684-4.231c-0.511-1.385-1.435-2.738-2.929-3.546    c-0.138-0.074-0.282-0.126-0.437-0.157c-0.078-0.015-0.927-0.172-2.331-0.172C49.01,8.04,46.019,8.34,42.543,9.725    c-0.239-0.01-0.583-0.021-1.01-0.021c-2.319,0.026-7.078,0.236-10.745,2.775c-1.496,0.163-6.361,0.841-10.332,3.709    c-0.163-0.011-0.351-0.017-0.564-0.017c-1.883-0.002-5.73,0.499-11.7,3.485c-0.146,0.074-0.271,0.171-0.382,0.281    c-0.424,0.241-0.811,0.574-1.11,0.997c-0.673,0.93-0.99,2.153-0.992,3.674c0.005,2.137,0.625,4.931,2.183,8.719    c0.162,0.391,0.475,0.693,0.871,0.842c0.007,0.002,2.845,1.068,7.682,3.051c10.592,4.344,30.688,13.07,50.89,24.396    c0.012,0.131,0.029,0.26,0.029,0.395c0.002,3.5,0.352,6.324,0.869,8.363c0.265,1.025,0.562,1.85,0.941,2.527    c0.195,0.338,0.409,0.646,0.727,0.934c0.307,0.277,0.783,0.574,1.426,0.58c0.76,0.002,1.354-0.463,1.643-0.857    c0.452-0.612,0.633-1.247,0.801-2.053c0.154-0.807,0.248-1.781,0.276-2.977c0.026-1.293,0.308-2.217,0.593-2.697    c0.557,0.332,1.115,0.658,1.672,0.994c0.717,1.488,1.41,4.205,1.381,8.248v0.303c0,0,0,0.043,0,0.107    c0.002,1.846,0.302,3.553,0.785,4.908c0.25,0.68,0.533,1.271,0.938,1.795c0.393,0.484,0.979,1.062,1.988,1.092    c0.834,0.004,1.504-0.51,1.854-1c0.558-0.76,0.833-1.658,1.081-2.92c0.234-1.261,0.389-2.875,0.439-4.957    c0.014-0.568,0.066-1.057,0.14-1.438c0.224,0.459,0.474,1.104,0.685,1.934c0.449,1.67,0.832,4.07,1.004,7.241    c0.183,3.286,0.658,5.671,1.361,7.378c0.357,0.854,0.771,1.549,1.319,2.102c0.53,0.539,1.286,0.955,2.128,0.955h0.01    c0.803,0,1.512-0.373,2.01-0.844c1.459-1.453,2.058-3.805,2.099-6.975C95.529,84.454,95.523,84.139,95.51,83.817z M10.456,31.565    c-1.279-3.23-1.714-5.518-1.709-6.957c-0.002-1.098,0.246-1.668,0.408-1.883c0.172-0.209,0.203-0.177,0.285-0.191    c0.043-0.001,0.237,0.019,0.57,0.275c1.029,0.733,2.79,3.659,3.581,9.719c0.001,0.013,0.006,0.024,0.008,0.037    c0.003,0.022,0.004,0.045,0.009,0.067c0.01,0.049,0.026,0.098,0.041,0.146c0.003,0.009,0.003,0.021,0.007,0.03    c0.002,0.004,0.002,0.008,0.003,0.011C12.173,32.229,11.085,31.808,10.456,31.565z M16.28,29.759    c-0.626-3.868-1.593-6.291-2.723-7.879c-0.254-0.365-0.524-0.682-0.8-0.955c3.731-1.495,6.071-1.715,7.138-1.716    c0.279,0,0.472,0.015,0.582,0.027c0.053,0.006,0.087,0.011,0.102,0.013c0.444,0.093,0.906-0.017,1.261-0.3    c1.856-1.494,4.287-2.401,6.246-2.896c0.979-0.249,1.837-0.397,2.442-0.484c0.303-0.043,0.542-0.071,0.703-0.088    c0.159-0.016,0.224-0.02,0.224-0.021c0.295-0.021,0.585-0.13,0.821-0.31c2.584-2.037,7.142-2.438,9.261-2.411    c0.369,0,0.663,0.009,0.862,0.018c0.199,0.009,0.284,0.018,0.284,0.017c0.239,0.019,0.48-0.02,0.703-0.111    c3.18-1.319,5.888-1.585,7.555-1.585c0.588,0,1.047,0.033,1.347,0.063c0.065,0.008,0.124,0.015,0.174,0.021    c0.589,0.388,1.013,0.984,1.328,1.814c0.344,0.913,0.493,2.066,0.491,3.17c0.001,0.673-0.057,1.319-0.137,1.889    c-2.412,0.47-8.483,1.705-15.35,3.506C30.91,23.627,22.061,26.378,16.28,29.759z M18.286,34.696    c0.064,0.018,0.128,0.036,0.193,0.054c0.697,0.197,1.399,0.403,2.111,0.625c0.068,0.021,0.136,0.044,0.205,0.066    c0.684,0.215,1.375,0.44,2.07,0.679c0.112,0.038,0.225,0.075,0.336,0.114c0.725,0.249,1.456,0.511,2.192,0.78    c0.138,0.051,0.276,0.104,0.415,0.154c0.756,0.282,1.517,0.571,2.284,0.875c0.006,0.002,0.012,0.005,0.018,0.007    c0.765,0.303,1.537,0.619,2.311,0.942c0.134,0.055,0.266,0.11,0.4,0.167c0.756,0.318,1.516,0.644,2.278,0.979    c0.132,0.059,0.264,0.117,0.395,0.175c0.757,0.336,1.517,0.676,2.277,1.025c0.036,0.017,0.072,0.033,0.108,0.049    c0.781,0.358,1.563,0.729,2.346,1.103c0.156,0.075,0.312,0.147,0.467,0.224c0.762,0.366,1.526,0.738,2.29,1.115    c0.129,0.063,0.259,0.129,0.389,0.194c0.708,0.353,1.417,0.709,2.125,1.069c0.112,0.059,0.225,0.114,0.338,0.172    c0.753,0.386,1.505,0.776,2.256,1.17c0.185,0.098,0.37,0.194,0.555,0.292c0.739,0.391,1.477,0.784,2.213,1.182    c0.139,0.076,0.278,0.151,0.417,0.227c0.646,0.353,1.288,0.701,1.928,1.058c0.181,0.1,0.361,0.198,0.542,0.298    c0.7,0.389,1.397,0.777,2.091,1.171c0.223,0.125,0.439,0.25,0.66,0.373c0.654,0.373,1.311,0.746,1.958,1.121    c0.185,0.104,0.366,0.213,0.551,0.317c0.574,0.334,1.146,0.668,1.713,1c0.132,0.077,0.265,0.155,0.396,0.231    C42.667,45.077,27.348,38.427,18.286,34.696z M91.833,88.756c-0.149,0.344-0.31,0.578-0.418,0.697    c-0.052-0.053-0.119-0.133-0.194-0.244c-0.604-0.822-1.386-3.221-1.584-7.232c-0.224-4.062-0.762-7.01-1.466-9.061    c-0.356-1.025-0.747-1.832-1.241-2.477c-0.484-0.617-1.162-1.225-2.207-1.246h-0.021c-0.622,0-1.202,0.293-1.57,0.648    c-0.133,0.127-0.247,0.264-0.349,0.402c-0.102,0.131-0.186,0.271-0.264,0.414c-0.002,0.002-0.004,0.002-0.004,0.006    c-0.188,0.344-0.324,0.709-0.438,1.104c-0.201,0.732-0.31,1.578-0.335,2.557c-0.055,2.234-0.242,3.846-0.471,4.868    c-0.041-0.125-0.08-0.252-0.114-0.39c-0.257-0.908-0.431-2.092-0.431-3.321c0-0.009,0-0.037,0.002-0.087v-0.322    c-0.002-2.283-0.188-4.219-0.508-5.854c-0.002-0.002-0.002-0.004-0.002-0.006c-0.062-0.312-0.128-0.617-0.197-0.908    c-0.004-0.012-0.006-0.02-0.008-0.028c-0.068-0.278-0.143-0.552-0.22-0.812c-0.021-0.062-0.039-0.121-0.06-0.184    c-0.063-0.207-0.129-0.414-0.197-0.607c-0.096-0.264-0.193-0.516-0.299-0.756c-0.463-1.053-1.014-1.896-1.694-2.529    c-0.674-0.627-1.534-1.055-2.476-1.055c-0.168,0-0.332,0.014-0.49,0.039c-0.066,0.01-0.131,0.033-0.196,0.047    c-0.09,0.021-0.182,0.039-0.271,0.066c-0.118,0.039-0.233,0.09-0.348,0.143c-0.029,0.014-0.062,0.023-0.09,0.037    c-0.134,0.066-0.263,0.146-0.388,0.227c-0.005,0.007-0.013,0.009-0.017,0.013c-0.391,0.265-0.727,0.604-0.998,0.985    c0,0-0.002,0-0.002,0.003c-0.07,0.099-0.135,0.202-0.195,0.305c-0.018,0.031-0.038,0.06-0.057,0.089    c0,0.002-0.002,0.004-0.002,0.004c-0.639,1.1-0.968,2.489-1.012,4.164c-0.003,0.135-0.007,0.268-0.012,0.393    c-0.006-0.021-0.01-0.041-0.014-0.062c-0.285-1.398-0.498-3.232-0.562-5.418c-0.005-0.189-0.009-0.381-0.015-0.574    c-0.004-0.258-0.008-0.514-0.008-0.779c0.002-3.397-2.062-5.913-4.578-7.815l-0.131-0.09c-0.223-0.136-0.445-0.271-0.67-0.405    c-0.009-0.005-0.018-0.011-0.023-0.017c-1.438-0.871-2.911-1.753-4.406-2.635c-0.029-0.019-0.062-0.036-0.096-0.055    c-0.029-0.019-0.061-0.036-0.092-0.054c-0.842-0.496-1.692-0.992-2.553-1.486c-0.015-0.01-0.029-0.018-0.043-0.024    c-0.142-0.082-0.281-0.162-0.423-0.244c-0.003-0.002-0.006-0.004-0.009-0.006c-0.75-0.43-1.506-0.857-2.266-1.289    c-0.021-0.012-0.043-0.023-0.064-0.035c-0.143-0.081-0.283-0.161-0.426-0.241c-0.004-0.002-0.008-0.004-0.012-0.006    c-2.656-1.494-5.362-2.963-8.092-4.381c-0.005-0.003-0.009-0.006-0.014-0.009c-0.1-0.051-0.201-0.104-0.301-0.155l-0.006-0.002    c-0.859-0.446-1.721-0.887-2.583-1.319c-0.003-0.002-0.008-0.004-0.011-0.006c-0.067-0.034-0.134-0.067-0.201-0.102    c-0.006-0.002-0.012-0.006-0.018-0.009c-0.896-0.45-1.793-0.893-2.691-1.327c-0.001-0.001-0.002-0.002-0.003-0.002    c-0.018-0.009-0.036-0.017-0.055-0.025c-0.007-0.003-0.014-0.008-0.021-0.011c-0.565-0.273-1.13-0.543-1.695-0.811l-0.136-0.064    c-0.545-0.257-1.09-0.511-1.635-0.762c-0.035-0.016-0.071-0.032-0.106-0.049c-2.934-1.347-5.85-2.592-8.714-3.7    c-0.011-0.004-0.022-0.009-0.032-0.013c-3.196-1.234-6.326-2.299-9.336-3.134c5.297-2.803,13.405-5.374,20.604-7.25    c4.377-1.148,8.442-2.067,11.409-2.698c1.963-0.417,3.438-0.706,4.213-0.855c0.268,0.188,0.53,0.381,0.795,0.573    c5.119,3.708,9.678,8.383,13.668,13.406c-2.188-0.489-3.955-0.336-4.213,0.45c-0.312,0.95,1.705,2.465,4.508,3.384    c1.104,0.361,2.158,0.574,3.057,0.645c4.949,7.002,8.849,14.307,11.662,20.367c0.033,0.074,0.072,0.146,0.117,0.213    c2.082,3.834,3.572,7.022,4.649,9.729c0.198,0.496,0.384,0.977,0.554,1.439l0.024,0.068c0.522,1.426,0.925,2.702,1.235,3.857    c0.031,0.123,0.064,0.246,0.098,0.367c0.938,3.652,0.982,6.095,1.134,8.519c0.013,0.276,0.019,0.55,0.019,0.812    C92.496,86.545,92.195,87.942,91.833,88.756z"></path></g></g></g></svg><svg id="name" viewBox="0 0 253.73599243164062 35.880001068115234" width="253" height="35.775926715161525" x="90" y="11.229631202052623" data-v-8d8ae3dd="" style="fill: rgb(240, 240, 240);"><rect x="0" y="0" width="100%" height="100%" fill="none" data-v-8d8ae3dd=""></rect><g data-v-8d8ae3dd=""><path xmlns="http://www.w3.org/2000/svg" d="M9.57 2.99L9.57 2.99Q16.70 2.99 20.52 5.50Q24.33 8.00 24.33 13.71L24.33 13.71Q24.33 19.46 20.47 22.01Q16.61 24.56 9.43 24.56L9.43 24.56L7.18 24.56L7.18 35.24L0 35.24L0 3.82Q2.35 3.36 4.97 3.17Q7.59 2.99 9.57 2.99ZM10.03 9.11L10.03 9.11Q9.25 9.11 8.49 9.15Q7.73 9.20 7.18 9.25L7.18 9.25L7.18 18.45L9.43 18.45Q13.16 18.45 15.04 17.43Q16.93 16.42 16.93 13.66L16.93 13.66Q16.93 12.33 16.45 11.45Q15.96 10.58 15.07 10.05Q14.17 9.52 12.88 9.31Q11.59 9.11 10.03 9.11ZM36.02 11.04L36.02 35.24L29.16 35.24L29.16 11.04L36.02 11.04ZM36.66 4.05L36.66 4.05Q36.66 5.93 35.44 7.01Q34.22 8.10 32.57 8.10L32.57 8.10Q30.91 8.10 29.69 7.01Q28.47 5.93 28.47 4.05L28.47 4.05Q28.47 2.16 29.69 1.08Q30.91 0 32.57 0L32.57 0Q34.22 0 35.44 1.08Q36.66 2.16 36.66 4.05ZM60.63 11.04L60.63 15.64Q59.80 16.56 58.40 18.12Q56.99 19.69 55.38 21.57Q53.77 23.46 52.14 25.53Q50.51 27.60 49.17 29.53L49.17 29.53L60.86 29.53L60.86 35.24L40.85 35.24L40.85 31.19Q41.81 29.53 43.17 27.62Q44.53 25.71 46.02 23.78Q47.52 21.85 48.99 20.03Q50.46 18.22 51.70 16.74L51.70 16.74L41.40 16.74L41.40 11.04L60.63 11.04ZM83.63 11.04L83.63 15.64Q82.80 16.56 81.40 18.12Q79.99 19.69 78.38 21.57Q76.77 23.46 75.14 25.53Q73.51 27.60 72.17 29.53L72.17 29.53L83.86 29.53L83.86 35.24L63.85 35.24L63.85 31.19Q64.81 29.53 66.17 27.62Q67.53 25.71 69.02 23.78Q70.52 21.85 71.99 20.03Q73.46 18.22 74.70 16.74L74.70 16.74L64.40 16.74L64.40 11.04L83.63 11.04ZM97.01 30.45L97.01 30.45Q98.03 30.45 98.95 30.41Q99.87 30.36 100.42 30.27L100.42 30.27L100.42 25.07Q100.00 24.98 99.18 24.89Q98.35 24.79 97.66 24.79L97.66 24.79Q96.69 24.79 95.84 24.91Q94.99 25.02 94.35 25.35Q93.70 25.67 93.33 26.22Q92.97 26.77 92.97 27.60L92.97 27.60Q92.97 29.21 94.05 29.83Q95.13 30.45 97.01 30.45ZM96.46 10.40L96.46 10.40Q99.50 10.40 101.52 11.09Q103.55 11.78 104.77 13.06Q105.98 14.35 106.49 16.19Q107.00 18.03 107.00 20.29L107.00 20.29L107.00 34.55Q105.52 34.87 102.90 35.30Q100.28 35.74 96.55 35.74L96.55 35.74Q94.21 35.74 92.30 35.33Q90.39 34.91 89.01 33.97Q87.63 33.03 86.89 31.51Q86.16 29.99 86.16 27.78L86.16 27.78Q86.16 25.67 87.01 24.20Q87.86 22.72 89.29 21.85Q90.71 20.98 92.55 20.58Q94.39 20.19 96.37 20.19L96.37 20.19Q97.70 20.19 98.74 20.31Q99.77 20.42 100.42 20.61L100.42 20.61L100.42 19.96Q100.42 18.22 99.36 17.16Q98.30 16.10 95.68 16.10L95.68 16.10Q93.93 16.10 92.23 16.35Q90.53 16.61 89.29 17.07L89.29 17.07L88.41 11.55Q89.01 11.36 89.91 11.15Q90.80 10.95 91.86 10.79Q92.92 10.63 94.09 10.51Q95.27 10.40 96.46 10.40ZM128.94 11.45L127.79 17.11Q126.87 16.88 125.63 16.63Q124.38 16.38 122.96 16.38L122.96 16.38Q122.31 16.38 121.42 16.49Q120.52 16.61 120.06 16.74L120.06 16.74L120.06 35.24L113.21 35.24L113.21 12.33Q115.05 11.68 117.55 11.11Q120.06 10.53 123.14 10.53L123.14 10.53Q123.69 10.53 124.48 10.60Q125.26 10.67 126.04 10.79Q126.82 10.90 127.60 11.06Q128.39 11.22 128.94 11.45L128.94 11.45ZM139.47 11.04L139.47 35.24L132.62 35.24L132.62 11.04L139.47 11.04ZM140.12 4.05L140.12 4.05Q140.12 5.93 138.90 7.01Q137.68 8.10 136.02 8.10L136.02 8.10Q134.37 8.10 133.15 7.01Q131.93 5.93 131.93 4.05L131.93 4.05Q131.93 2.16 133.15 1.08Q134.37 0 136.02 0L136.02 0Q137.68 0 138.90 1.08Q140.12 2.16 140.12 4.05ZM155.16 30.45L155.16 30.45Q156.17 30.45 157.09 30.41Q158.01 30.36 158.56 30.27L158.56 30.27L158.56 25.07Q158.15 24.98 157.32 24.89Q156.49 24.79 155.80 24.79L155.80 24.79Q154.84 24.79 153.99 24.91Q153.13 25.02 152.49 25.35Q151.85 25.67 151.48 26.22Q151.11 26.77 151.11 27.60L151.11 27.60Q151.11 29.21 152.19 29.83Q153.27 30.45 155.16 30.45ZM154.61 10.40L154.61 10.40Q157.64 10.40 159.67 11.09Q161.69 11.78 162.91 13.06Q164.13 14.35 164.63 16.19Q165.14 18.03 165.14 20.29L165.14 20.29L165.14 34.55Q163.67 34.87 161.05 35.30Q158.42 35.74 154.70 35.74L154.70 35.74Q152.35 35.74 150.44 35.33Q148.53 34.91 147.15 33.97Q145.77 33.03 145.04 31.51Q144.30 29.99 144.30 27.78L144.30 27.78Q144.30 25.67 145.15 24.20Q146.00 22.72 147.43 21.85Q148.86 20.98 150.70 20.58Q152.54 20.19 154.51 20.19L154.51 20.19Q155.85 20.19 156.88 20.31Q157.92 20.42 158.56 20.61L158.56 20.61L158.56 19.96Q158.56 18.22 157.50 17.16Q156.45 16.10 153.82 16.10L153.82 16.10Q152.08 16.10 150.37 16.35Q148.67 16.61 147.43 17.07L147.43 17.07L146.56 11.55Q147.15 11.36 148.05 11.15Q148.95 10.95 150.01 10.79Q151.06 10.63 152.24 10.51Q153.41 10.40 154.61 10.40ZM178.99 9.25L178.99 29.39Q179.49 29.44 180.16 29.46Q180.83 29.49 181.75 29.49L181.75 29.49Q187.13 29.49 189.73 26.77Q192.33 24.06 192.33 19.27L192.33 19.27Q192.33 14.26 189.84 11.68Q187.36 9.11 181.98 9.11L181.98 9.11Q181.24 9.11 180.46 9.13Q179.68 9.15 178.99 9.25L178.99 9.25ZM199.73 19.27L199.73 19.27Q199.73 23.41 198.44 26.50Q197.16 29.58 194.79 31.60Q192.42 33.63 189.01 34.64Q185.61 35.65 181.38 35.65L181.38 35.65Q179.45 35.65 176.87 35.49Q174.29 35.33 171.81 34.82L171.81 34.82L171.81 3.77Q174.29 3.31 176.98 3.15Q179.68 2.99 181.61 2.99L181.61 2.99Q185.70 2.99 189.04 3.91Q192.37 4.83 194.76 6.81Q197.16 8.79 198.44 11.87Q199.73 14.95 199.73 19.27ZM204.10 23.32L204.10 23.32Q204.10 20.10 205.09 17.69Q206.08 15.27 207.69 13.66Q209.30 12.05 211.39 11.22Q213.49 10.40 215.69 10.40L215.69 10.40Q220.85 10.40 223.84 13.55Q226.83 16.70 226.83 22.82L226.83 22.82Q226.83 23.41 226.78 24.13Q226.73 24.84 226.69 25.39L226.69 25.39L211.14 25.39Q211.37 27.51 213.12 28.75Q214.87 29.99 217.81 29.99L217.81 29.99Q219.70 29.99 221.51 29.65Q223.33 29.30 224.48 28.80L224.48 28.80L225.40 34.36Q224.85 34.64 223.93 34.91Q223.01 35.19 221.88 35.40Q220.75 35.60 219.47 35.74Q218.18 35.88 216.89 35.88L216.89 35.88Q213.62 35.88 211.21 34.91Q208.79 33.95 207.21 32.27Q205.62 30.59 204.86 28.29Q204.10 25.99 204.10 23.32ZM211.14 20.70L220.20 20.70Q220.16 19.83 219.90 19.00Q219.65 18.17 219.12 17.53Q218.59 16.88 217.79 16.47Q216.98 16.05 215.79 16.05L215.79 16.05Q214.64 16.05 213.81 16.44Q212.98 16.84 212.43 17.48Q211.88 18.12 211.58 18.97Q211.28 19.83 211.14 20.70L211.14 20.70ZM244.40 35.24L238.69 35.24Q236.35 30.64 233.93 24.47Q231.52 18.31 229.36 11.04L229.36 11.04L236.62 11.04Q237.08 12.83 237.70 14.93Q238.33 17.02 238.99 19.16Q239.66 21.30 240.33 23.32Q240.99 25.35 241.64 27.00L241.64 27.00Q242.24 25.35 242.93 23.32Q243.62 21.30 244.28 19.16Q244.95 17.02 245.57 14.93Q246.19 12.83 246.65 11.04L246.65 11.04L253.74 11.04Q251.57 18.31 249.16 24.47Q246.74 30.64 244.40 35.24L244.40 35.24Z"></path></g></svg><svg id="slogan" viewBox="0 0 224.5 15.800000190734863" width="224" height="15.764810880733227" x="90" y="51.00555791721415" data-v-8d8ae3dd="" style="fill: rgb(230, 230, 230);"><rect x="0" y="0" width="100%" height="100%" fill="none" data-v-8d8ae3dd=""></rect><g data-v-8d8ae3dd=""><path xmlns="http://www.w3.org/2000/svg" d="M7.36 4.06L7.36 4.06Q5.18 4.06 4.21 5.27Q3.24 6.48 3.24 8.58L3.24 8.58Q3.24 9.60 3.48 10.43Q3.72 11.26 4.20 11.86Q4.68 12.46 5.40 12.79Q6.12 13.12 7.08 13.12L7.08 13.12Q7.60 13.12 7.97 13.10Q8.34 13.08 8.62 13.02L8.62 13.02L8.62 8.20L11.74 8.20L11.74 15.06Q11.18 15.28 9.94 15.53Q8.70 15.78 6.88 15.78L6.88 15.78Q5.32 15.78 4.05 15.30Q2.78 14.82 1.88 13.90Q0.98 12.98 0.49 11.64Q0 10.30 0 8.58L0 8.58Q0 6.84 0.54 5.50Q1.08 4.16 2.02 3.23Q2.96 2.30 4.23 1.82Q5.50 1.34 6.94 1.34L6.94 1.34Q7.92 1.34 8.71 1.47Q9.50 1.60 10.07 1.77Q10.64 1.94 11.01 2.12Q11.38 2.30 11.54 2.40L11.54 2.40L10.64 4.90Q10 4.56 9.17 4.31Q8.34 4.06 7.36 4.06ZM13.94 10.34L13.94 10.34Q13.94 8.94 14.37 7.89Q14.80 6.84 15.50 6.14Q16.20 5.44 17.11 5.08Q18.02 4.72 18.98 4.72L18.98 4.72Q21.22 4.72 22.52 6.09Q23.82 7.46 23.82 10.12L23.82 10.12Q23.82 10.38 23.80 10.69Q23.78 11 23.76 11.24L23.76 11.24L17 11.24Q17.10 12.16 17.86 12.70Q18.62 13.24 19.90 13.24L19.90 13.24Q20.72 13.24 21.51 13.09Q22.30 12.94 22.80 12.72L22.80 12.72L23.20 15.14Q22.96 15.26 22.56 15.38Q22.16 15.50 21.67 15.59Q21.18 15.68 20.62 15.74Q20.06 15.80 19.50 15.80L19.50 15.80Q18.08 15.80 17.03 15.38Q15.98 14.96 15.29 14.23Q14.60 13.50 14.27 12.50Q13.94 11.50 13.94 10.34ZM17 9.20L20.94 9.20Q20.92 8.82 20.81 8.46Q20.70 8.10 20.47 7.82Q20.24 7.54 19.89 7.36Q19.54 7.18 19.02 7.18L19.02 7.18Q18.52 7.18 18.16 7.35Q17.80 7.52 17.56 7.80Q17.32 8.08 17.19 8.45Q17.06 8.82 17 9.20L17 9.20ZM32.96 5.18L32.46 7.64Q32.06 7.54 31.52 7.43Q30.98 7.32 30.36 7.32L30.36 7.32Q30.08 7.32 29.69 7.37Q29.30 7.42 29.10 7.48L29.10 7.48L29.10 15.52L26.12 15.52L26.12 5.56Q26.92 5.28 28.01 5.03Q29.10 4.78 30.44 4.78L30.44 4.78Q30.68 4.78 31.02 4.81Q31.36 4.84 31.70 4.89Q32.04 4.94 32.38 5.01Q32.72 5.08 32.96 5.18L32.96 5.18ZM33.86 10.34L33.86 10.34Q33.86 8.94 34.29 7.89Q34.72 6.84 35.42 6.14Q36.12 5.44 37.03 5.08Q37.94 4.72 38.90 4.72L38.90 4.72Q41.14 4.72 42.44 6.09Q43.74 7.46 43.74 10.12L43.74 10.12Q43.74 10.38 43.72 10.69Q43.70 11 43.68 11.24L43.68 11.24L36.92 11.24Q37.02 12.16 37.78 12.70Q38.54 13.24 39.82 13.24L39.82 13.24Q40.64 13.24 41.43 13.09Q42.22 12.94 42.72 12.72L42.72 12.72L43.12 15.14Q42.88 15.26 42.48 15.38Q42.08 15.50 41.59 15.59Q41.10 15.68 40.54 15.74Q39.98 15.80 39.42 15.80L39.42 15.80Q38.00 15.80 36.95 15.38Q35.90 14.96 35.21 14.23Q34.52 13.50 34.19 12.50Q33.86 11.50 33.86 10.34ZM36.92 9.20L40.86 9.20Q40.84 8.82 40.73 8.46Q40.62 8.10 40.39 7.82Q40.16 7.54 39.81 7.36Q39.46 7.18 38.94 7.18L38.94 7.18Q38.44 7.18 38.08 7.35Q37.72 7.52 37.48 7.80Q37.24 8.08 37.11 8.45Q36.98 8.82 36.92 9.20L36.92 9.20ZM46.04 15.52L46.04 5.36Q46.80 5.14 48.00 4.95Q49.20 4.76 50.52 4.76L50.52 4.76Q51.86 4.76 52.75 5.11Q53.64 5.46 54.16 6.10Q54.68 6.74 54.90 7.62Q55.12 8.50 55.12 9.58L55.12 9.58L55.12 15.52L52.14 15.52L52.14 9.94Q52.14 8.50 51.76 7.90Q51.38 7.30 50.34 7.30L50.34 7.30Q50.02 7.30 49.66 7.33Q49.30 7.36 49.02 7.40L49.02 7.40L49.02 15.52L46.04 15.52ZM57.32 10.26L57.32 10.26Q57.32 9.12 57.69 8.11Q58.06 7.10 58.76 6.35Q59.46 5.60 60.46 5.16Q61.46 4.72 62.74 4.72L62.74 4.72Q63.58 4.72 64.28 4.87Q64.98 5.02 65.64 5.30L65.64 5.30L65.02 7.68Q64.60 7.52 64.10 7.40Q63.60 7.28 62.98 7.28L62.98 7.28Q61.66 7.28 61.01 8.10Q60.36 8.92 60.36 10.26L60.36 10.26Q60.36 11.68 60.97 12.46Q61.58 13.24 63.10 13.24L63.10 13.24Q63.64 13.24 64.26 13.14Q64.88 13.04 65.40 12.82L65.40 12.82L65.82 15.26Q65.30 15.48 64.52 15.64Q63.74 15.80 62.80 15.80L62.80 15.80Q61.36 15.80 60.32 15.37Q59.28 14.94 58.61 14.20Q57.94 13.46 57.63 12.45Q57.32 11.44 57.32 10.26ZM70.80 5L70.80 15.52L67.82 15.52L67.82 5L70.80 5ZM71.08 1.96L71.08 1.96Q71.08 2.78 70.55 3.25Q70.02 3.72 69.30 3.72L69.30 3.72Q68.58 3.72 68.05 3.25Q67.52 2.78 67.52 1.96L67.52 1.96Q67.52 1.14 68.05 0.67Q68.58 0.20 69.30 0.20L69.30 0.20Q70.02 0.20 70.55 0.67Q71.08 1.14 71.08 1.96ZM77.62 13.44L77.62 13.44Q78.06 13.44 78.46 13.42Q78.86 13.40 79.10 13.36L79.10 13.36L79.10 11.10Q78.92 11.06 78.56 11.02Q78.20 10.98 77.90 10.98L77.90 10.98Q77.48 10.98 77.11 11.03Q76.74 11.08 76.46 11.22Q76.18 11.36 76.02 11.60Q75.86 11.84 75.86 12.20L75.86 12.20Q75.86 12.90 76.33 13.17Q76.80 13.44 77.62 13.44ZM77.38 4.72L77.38 4.72Q78.70 4.72 79.58 5.02Q80.46 5.32 80.99 5.88Q81.52 6.44 81.74 7.24Q81.96 8.04 81.96 9.02L81.96 9.02L81.96 15.22Q81.32 15.36 80.18 15.55Q79.04 15.74 77.42 15.74L77.42 15.74Q76.40 15.74 75.57 15.56Q74.74 15.38 74.14 14.97Q73.54 14.56 73.22 13.90Q72.90 13.24 72.90 12.28L72.90 12.28Q72.90 11.36 73.27 10.72Q73.64 10.08 74.26 9.70Q74.88 9.32 75.68 9.15Q76.48 8.98 77.34 8.98L77.34 8.98Q77.92 8.98 78.37 9.03Q78.82 9.08 79.10 9.16L79.10 9.16L79.10 8.88Q79.10 8.12 78.64 7.66Q78.18 7.20 77.04 7.20L77.04 7.20Q76.28 7.20 75.54 7.31Q74.80 7.42 74.26 7.62L74.26 7.62L73.88 5.22Q74.14 5.14 74.53 5.05Q74.92 4.96 75.38 4.89Q75.84 4.82 76.35 4.77Q76.86 4.72 77.38 4.72ZM87.20 10.18L87.20 10.18Q87.20 11.56 87.82 12.40Q88.44 13.24 89.66 13.24L89.66 13.24Q90.06 13.24 90.40 13.21Q90.74 13.18 90.96 13.14L90.96 13.14L90.96 7.72Q90.68 7.54 90.23 7.42Q89.78 7.30 89.32 7.30L89.32 7.30Q87.20 7.30 87.20 10.18ZM93.94 0L93.94 15.18Q93.54 15.30 93.02 15.41Q92.50 15.52 91.93 15.60Q91.36 15.68 90.77 15.73Q90.18 15.78 89.64 15.78L89.64 15.78Q88.34 15.78 87.32 15.40Q86.30 15.02 85.60 14.31Q84.90 13.60 84.53 12.59Q84.16 11.58 84.16 10.32L84.16 10.32Q84.16 9.04 84.48 8.01Q84.80 6.98 85.40 6.26Q86.00 5.54 86.87 5.16Q87.74 4.78 88.86 4.78L88.86 4.78Q89.48 4.78 89.97 4.90Q90.46 5.02 90.96 5.24L90.96 5.24L90.96 0.48L93.94 0ZM106.58 10.24L106.58 10.24Q106.58 11.48 106.22 12.51Q105.86 13.54 105.18 14.27Q104.50 15 103.55 15.40Q102.60 15.80 101.42 15.80L101.42 15.80Q100.26 15.80 99.31 15.40Q98.36 15 97.68 14.27Q97.00 13.54 96.62 12.51Q96.24 11.48 96.24 10.24L96.24 10.24Q96.24 9 96.63 7.98Q97.02 6.96 97.71 6.24Q98.40 5.52 99.35 5.12Q100.30 4.72 101.42 4.72L101.42 4.72Q102.56 4.72 103.51 5.12Q104.46 5.52 105.14 6.24Q105.82 6.96 106.20 7.98Q106.58 9 106.58 10.24ZM103.54 10.24L103.54 10.24Q103.54 8.86 102.99 8.07Q102.44 7.28 101.42 7.28L101.42 7.28Q100.40 7.28 99.84 8.07Q99.28 8.86 99.28 10.24L99.28 10.24Q99.28 11.62 99.84 12.43Q100.40 13.24 101.42 13.24L101.42 13.24Q102.44 13.24 102.99 12.43Q103.54 11.62 103.54 10.24ZM115.72 5.18L115.22 7.64Q114.82 7.54 114.28 7.43Q113.74 7.32 113.12 7.32L113.12 7.32Q112.84 7.32 112.45 7.37Q112.06 7.42 111.86 7.48L111.86 7.48L111.86 15.52L108.88 15.52L108.88 5.56Q109.68 5.28 110.77 5.03Q111.86 4.78 113.20 4.78L113.20 4.78Q113.44 4.78 113.78 4.81Q114.12 4.84 114.46 4.89Q114.80 4.94 115.14 5.01Q115.48 5.08 115.72 5.18L115.72 5.18ZM124.66 10.18L124.66 10.18Q124.66 11.56 125.28 12.40Q125.90 13.24 127.12 13.24L127.12 13.24Q127.52 13.24 127.86 13.21Q128.20 13.18 128.42 13.14L128.42 13.14L128.42 7.72Q128.14 7.54 127.69 7.42Q127.24 7.30 126.78 7.30L126.78 7.30Q124.66 7.30 124.66 10.18ZM131.40 0L131.40 15.18Q131.00 15.30 130.48 15.41Q129.96 15.52 129.39 15.60Q128.82 15.68 128.23 15.73Q127.64 15.78 127.10 15.78L127.10 15.78Q125.80 15.78 124.78 15.40Q123.76 15.02 123.06 14.31Q122.36 13.60 121.99 12.59Q121.62 11.58 121.62 10.32L121.62 10.32Q121.62 9.04 121.94 8.01Q122.26 6.98 122.86 6.26Q123.46 5.54 124.33 5.16Q125.20 4.78 126.32 4.78L126.32 4.78Q126.94 4.78 127.43 4.90Q127.92 5.02 128.42 5.24L128.42 5.24L128.42 0.48L131.40 0ZM133.70 10.34L133.70 10.34Q133.70 8.94 134.13 7.89Q134.56 6.84 135.26 6.14Q135.96 5.44 136.87 5.08Q137.78 4.72 138.74 4.72L138.74 4.72Q140.98 4.72 142.28 6.09Q143.58 7.46 143.58 10.12L143.58 10.12Q143.58 10.38 143.56 10.69Q143.54 11 143.52 11.24L143.52 11.24L136.76 11.24Q136.86 12.16 137.62 12.70Q138.38 13.24 139.66 13.24L139.66 13.24Q140.48 13.24 141.27 13.09Q142.06 12.94 142.56 12.72L142.56 12.72L142.96 15.14Q142.72 15.26 142.32 15.38Q141.92 15.50 141.43 15.59Q140.94 15.68 140.38 15.74Q139.82 15.80 139.26 15.80L139.26 15.80Q137.84 15.80 136.79 15.38Q135.74 14.96 135.05 14.23Q134.36 13.50 134.03 12.50Q133.70 11.50 133.70 10.34ZM136.76 9.20L140.70 9.20Q140.68 8.82 140.57 8.46Q140.46 8.10 140.23 7.82Q140.00 7.54 139.65 7.36Q139.30 7.18 138.78 7.18L138.78 7.18Q138.28 7.18 137.92 7.35Q137.56 7.52 137.32 7.80Q137.08 8.08 136.95 8.45Q136.82 8.82 136.76 9.20L136.76 9.20ZM155.04 1.50L155.04 1.50Q158.14 1.50 159.80 2.59Q161.46 3.68 161.46 6.16L161.46 6.16Q161.46 8.66 159.78 9.77Q158.10 10.88 154.98 10.88L154.98 10.88L154 10.88L154 15.52L150.88 15.52L150.88 1.86Q151.90 1.66 153.04 1.58Q154.18 1.50 155.04 1.50ZM155.24 4.16L155.24 4.16Q154.90 4.16 154.57 4.18Q154.24 4.20 154 4.22L154 4.22L154 8.22L154.98 8.22Q156.60 8.22 157.42 7.78Q158.24 7.34 158.24 6.14L158.24 6.14Q158.24 5.56 158.03 5.18Q157.82 4.80 157.43 4.57Q157.04 4.34 156.48 4.25Q155.92 4.16 155.24 4.16ZM162.76 10.34L162.76 10.34Q162.76 8.94 163.19 7.89Q163.62 6.84 164.32 6.14Q165.02 5.44 165.93 5.08Q166.84 4.72 167.80 4.72L167.80 4.72Q170.04 4.72 171.34 6.09Q172.64 7.46 172.64 10.12L172.64 10.12Q172.64 10.38 172.62 10.69Q172.60 11 172.58 11.24L172.58 11.24L165.82 11.24Q165.92 12.16 166.68 12.70Q167.44 13.24 168.72 13.24L168.72 13.24Q169.54 13.24 170.33 13.09Q171.12 12.94 171.62 12.72L171.62 12.72L172.02 15.14Q171.78 15.26 171.38 15.38Q170.98 15.50 170.49 15.59Q170 15.68 169.44 15.74Q168.88 15.80 168.32 15.80L168.32 15.80Q166.90 15.80 165.85 15.38Q164.80 14.96 164.11 14.23Q163.42 13.50 163.09 12.50Q162.76 11.50 162.76 10.34ZM165.82 9.20L169.76 9.20Q169.74 8.82 169.63 8.46Q169.52 8.10 169.29 7.82Q169.06 7.54 168.71 7.36Q168.36 7.18 167.84 7.18L167.84 7.18Q167.34 7.18 166.98 7.35Q166.62 7.52 166.38 7.80Q166.14 8.08 166.01 8.45Q165.88 8.82 165.82 9.20L165.82 9.20ZM177.48 10.18L177.48 10.18Q177.48 11.56 178.10 12.40Q178.72 13.24 179.94 13.24L179.94 13.24Q180.34 13.24 180.68 13.21Q181.02 13.18 181.24 13.14L181.24 13.14L181.24 7.72Q180.96 7.54 180.51 7.42Q180.06 7.30 179.60 7.30L179.60 7.30Q177.48 7.30 177.48 10.18ZM184.22 0L184.22 15.18Q183.82 15.30 183.30 15.41Q182.78 15.52 182.21 15.60Q181.64 15.68 181.05 15.73Q180.46 15.78 179.92 15.78L179.92 15.78Q178.62 15.78 177.60 15.40Q176.58 15.02 175.88 14.31Q175.18 13.60 174.81 12.59Q174.44 11.58 174.44 10.32L174.44 10.32Q174.44 9.04 174.76 8.01Q175.08 6.98 175.68 6.26Q176.28 5.54 177.15 5.16Q178.02 4.78 179.14 4.78L179.14 4.78Q179.76 4.78 180.25 4.90Q180.74 5.02 181.24 5.24L181.24 5.24L181.24 0.48L184.22 0ZM190 5L190 15.52L187.02 15.52L187.02 5L190 5ZM190.28 1.96L190.28 1.96Q190.28 2.78 189.75 3.25Q189.22 3.72 188.50 3.72L188.50 3.72Q187.78 3.72 187.25 3.25Q186.72 2.78 186.72 1.96L186.72 1.96Q186.72 1.14 187.25 0.67Q187.78 0.20 188.50 0.20L188.50 0.20Q189.22 0.20 189.75 0.67Q190.28 1.14 190.28 1.96ZM195.34 10.18L195.34 10.18Q195.34 11.56 195.96 12.40Q196.58 13.24 197.80 13.24L197.80 13.24Q198.20 13.24 198.54 13.21Q198.88 13.18 199.10 13.14L199.10 13.14L199.10 7.72Q198.82 7.54 198.37 7.42Q197.92 7.30 197.46 7.30L197.46 7.30Q195.34 7.30 195.34 10.18ZM202.08 0L202.08 15.18Q201.68 15.30 201.16 15.41Q200.64 15.52 200.07 15.60Q199.50 15.68 198.91 15.73Q198.32 15.78 197.78 15.78L197.78 15.78Q196.48 15.78 195.46 15.40Q194.44 15.02 193.74 14.31Q193.04 13.60 192.67 12.59Q192.30 11.58 192.30 10.32L192.30 10.32Q192.30 9.04 192.62 8.01Q192.94 6.98 193.54 6.26Q194.14 5.54 195.01 5.16Q195.88 4.78 197 4.78L197 4.78Q197.62 4.78 198.11 4.90Q198.60 5.02 199.10 5.24L199.10 5.24L199.10 0.48L202.08 0ZM214.72 10.24L214.72 10.24Q214.72 11.48 214.36 12.51Q214.00 13.54 213.32 14.27Q212.64 15 211.69 15.40Q210.74 15.80 209.56 15.80L209.56 15.80Q208.40 15.80 207.45 15.40Q206.50 15 205.82 14.27Q205.14 13.54 204.76 12.51Q204.38 11.48 204.38 10.24L204.38 10.24Q204.38 9 204.77 7.98Q205.16 6.96 205.85 6.24Q206.54 5.52 207.49 5.12Q208.44 4.72 209.56 4.72L209.56 4.72Q210.70 4.72 211.65 5.12Q212.60 5.52 213.28 6.24Q213.96 6.96 214.34 7.98Q214.72 9 214.72 10.24ZM211.68 10.24L211.68 10.24Q211.68 8.86 211.13 8.07Q210.58 7.28 209.56 7.28L209.56 7.28Q208.54 7.28 207.98 8.07Q207.42 8.86 207.42 10.24L207.42 10.24Q207.42 11.62 207.98 12.43Q208.54 13.24 209.56 13.24L209.56 13.24Q210.58 13.24 211.13 12.43Q211.68 11.62 211.68 10.24ZM220.04 13.38L220.04 13.38Q220.86 13.38 221.20 13.22Q221.54 13.06 221.54 12.60L221.54 12.60Q221.54 12.24 221.10 11.97Q220.66 11.70 219.76 11.36L219.76 11.36Q219.06 11.10 218.49 10.82Q217.92 10.54 217.52 10.15Q217.12 9.76 216.90 9.22Q216.68 8.68 216.68 7.92L216.68 7.92Q216.68 6.44 217.78 5.58Q218.88 4.72 220.80 4.72L220.80 4.72Q221.76 4.72 222.64 4.89Q223.52 5.06 224.04 5.26L224.04 5.26L223.52 7.58Q223 7.40 222.39 7.26Q221.78 7.12 221.02 7.12L221.02 7.12Q219.62 7.12 219.62 7.90L219.62 7.90Q219.62 8.08 219.68 8.22Q219.74 8.36 219.92 8.49Q220.10 8.62 220.41 8.77Q220.72 8.92 221.20 9.10L221.20 9.10Q222.18 9.46 222.82 9.81Q223.46 10.16 223.83 10.57Q224.20 10.98 224.35 11.48Q224.50 11.98 224.50 12.64L224.50 12.64Q224.50 14.20 223.33 15Q222.16 15.80 220.02 15.80L220.02 15.80Q218.62 15.80 217.69 15.56Q216.76 15.32 216.40 15.16L216.40 15.16L216.90 12.74Q217.66 13.04 218.46 13.21Q219.26 13.38 220.04 13.38Z"></path></g></svg></svg>